<?xml version="1.0" standalone="no"?>
<svg xmlns:xlink="http://www.w3.org/1999/xlink" id="wave" style="transform:rotate(180deg); transition: 0.3s" viewBox="0 0 1440 100" version="1.1" xmlns="http://www.w3.org/2000/svg"><defs><linearGradient id="sw-gradient-0" x1="0" x2="0" y1="1" y2="0"><stop stop-color="rgba(87, 171, 131, 1)" offset="0%"/><stop stop-color="rgba(87, 171, 131, 1)" offset="100%"/></linearGradient></defs><path style="transform:translate(0, 0px); opacity:1" fill="url(#sw-gradient-0)" d="M0,10L26.7,13.3C53.3,17,107,23,160,33.3C213.3,43,267,57,320,58.3C373.3,60,427,50,480,40C533.3,30,587,20,640,13.3C693.3,7,747,3,800,15C853.3,27,907,53,960,53.3C1013.3,53,1067,27,1120,15C1173.3,3,1227,7,1280,8.3C1333.3,10,1387,10,1440,21.7C1493.3,33,1547,57,1600,56.7C1653.3,57,1707,33,1760,33.3C1813.3,33,1867,57,1920,68.3C1973.3,80,2027,80,2080,80C2133.3,80,2187,80,2240,75C2293.3,70,2347,60,2400,58.3C2453.3,57,2507,63,2560,60C2613.3,57,2667,43,2720,43.3C2773.3,43,2827,57,2880,65C2933.3,73,2987,77,3040,66.7C3093.3,57,3147,33,3200,26.7C3253.3,20,3307,30,3360,31.7C3413.3,33,3467,27,3520,35C3573.3,43,3627,67,3680,71.7C3733.3,77,3787,63,3813,56.7L3840,50L3840,100L3813.3,100C3786.7,100,3733,100,3680,100C3626.7,100,3573,100,3520,100C3466.7,100,3413,100,3360,100C3306.7,100,3253,100,3200,100C3146.7,100,3093,100,3040,100C2986.7,100,2933,100,2880,100C2826.7,100,2773,100,2720,100C2666.7,100,2613,100,2560,100C2506.7,100,2453,100,2400,100C2346.7,100,2293,100,2240,100C2186.7,100,2133,100,2080,100C2026.7,100,1973,100,1920,100C1866.7,100,1813,100,1760,100C1706.7,100,1653,100,1600,100C1546.7,100,1493,100,1440,100C1386.7,100,1333,100,1280,100C1226.7,100,1173,100,1120,100C1066.7,100,1013,100,960,100C906.7,100,853,100,800,100C746.7,100,693,100,640,100C586.7,100,533,100,480,100C426.7,100,373,100,320,100C266.7,100,213,100,160,100C106.7,100,53,100,27,100L0,100Z"/></svg>