<?xml version="1.0" standalone="no"?>
<svg xmlns:xlink="http://www.w3.org/1999/xlink" id="wave" style="transform:rotate(180deg); transition: 0.3s" viewBox="0 0 1440 100" version="1.1" xmlns="http://www.w3.org/2000/svg"><defs><linearGradient id="sw-gradient-0" x1="0" x2="0" y1="1" y2="0"><stop stop-color="rgba(52, 118, 69, 1)" offset="0%"/><stop stop-color="rgba(52, 118, 69, 1)" offset="100%"/></linearGradient></defs><path style="transform:translate(0, 0px); opacity:1" fill="url(#sw-gradient-0)" d="M0,80L30,68.3C60,57,120,33,180,20C240,7,300,3,360,16.7C420,30,480,60,540,63.3C600,67,660,43,720,33.3C780,23,840,27,900,25C960,23,1020,17,1080,16.7C1140,17,1200,23,1260,31.7C1320,40,1380,50,1440,58.3C1500,67,1560,73,1620,71.7C1680,70,1740,60,1800,61.7C1860,63,1920,77,1980,70C2040,63,2100,37,2160,33.3C2220,30,2280,50,2340,61.7C2400,73,2460,77,2520,71.7C2580,67,2640,53,2700,50C2760,47,2820,53,2880,53.3C2940,53,3000,47,3060,38.3C3120,30,3180,20,3240,23.3C3300,27,3360,43,3420,43.3C3480,43,3540,27,3600,25C3660,23,3720,37,3780,40C3840,43,3900,37,3960,33.3C4020,30,4080,30,4140,33.3C4200,37,4260,43,4290,46.7L4320,50L4320,100L4290,100C4260,100,4200,100,4140,100C4080,100,4020,100,3960,100C3900,100,3840,100,3780,100C3720,100,3660,100,3600,100C3540,100,3480,100,3420,100C3360,100,3300,100,3240,100C3180,100,3120,100,3060,100C3000,100,2940,100,2880,100C2820,100,2760,100,2700,100C2640,100,2580,100,2520,100C2460,100,2400,100,2340,100C2280,100,2220,100,2160,100C2100,100,2040,100,1980,100C1920,100,1860,100,1800,100C1740,100,1680,100,1620,100C1560,100,1500,100,1440,100C1380,100,1320,100,1260,100C1200,100,1140,100,1080,100C1020,100,960,100,900,100C840,100,780,100,720,100C660,100,600,100,540,100C480,100,420,100,360,100C300,100,240,100,180,100C120,100,60,100,30,100L0,100Z"/></svg>